# AST/ASF file generated using VICON BodyLanguage
# -----------------------------------------------
:version 1.10
:name VICON
:units
  mass 1.0
  length 0.45
  angle deg
:documentation
   .ast/.asf automatically generated from VICON data using
   VICON BodyBuilder and BodyLanguage model FoxedUp or BRILLIANT.MOD
:root
   order TX TY TZ RX RY RZ
   axis XYZ
   position 0 0 0  
   orientation 0 0 0 
:bonedata
  begin
     id 1 
     name lhipjoint
     direction 0.707368 -0.647095 0.284426 
     length 2.60678 
     axis 0 0 0  XYZ
  end
  begin
     id 2 
     name lfemur
     direction 0.34202 -0.939693 0  
     length 6.63812  
     axis 0 0 20  XYZ
    dof rx ry rz
    limits (-160.0 20.0)
           (-70.0 70.0)
           (-60.0 70.0)
  end
  begin
     id 3 
     name ltibia
     direction 0.34202 -0.939693 0   
     length 7.51178   
     axis 0 0 20   XYZ
    dof rx
    limits (-10.0 170.0)
  end
  begin
     id 4 
     name lfoot
     direction 0.121251 -0.333133 0.935051   
     length 1.83716   
     axis -90 7.62852e-016 20   XYZ
    dof rx rz
    limits (-45.0 90.0)
           (-70.0 20.0)
  end
  begin
     id 5 
     name ltoes
     direction 1.53611e-011 -4.21962e-011 1   
     length 0.916133   
     axis -90 7.62852e-016 20   XYZ
    dof rx
    limits (-90.0 20.0)
  end
  begin
     id 6 
     name rhipjoint
     direction -0.692419 -0.660507 0.290321   
     length 2.55385  
     axis 0 0 0  XYZ 
  end
  begin
     id 7 
     name rfemur
     direction -0.34202 -0.939693 0   
     length 7.29079   
     axis 0 0 -20   XYZ
    dof rx ry rz
    limits (-160.0 20.0)
           (-70.0 70.0)
           (-70.0 60.0)
  end
  begin
     id 8 
     name rtibia
     direction -0.34202 -0.939693 0   
     length 7.47143   
     axis 0 0 -20   XYZ
    dof rx
    limits (-10.0 170.0)
 end
 begin
     id 9 
     name rfoot
     direction -0.119907 -0.329441 0.936532   
     length 1.79439  
     axis -90 -7.62852e-016 -20   XYZ
    dof rx rz
    limits (-45.0 90.0)
           (-20.0 70.0)
  end
  begin
     id 10 
     name rtoes
     direction -1.53571e-011 -4.21961e-011 1   
     length 0.896039   
     axis -90 -7.62852e-016 -20   XYZ
    dof rx
    limits (-90.0 20.0)
  end
  begin
     id 11 
     name lowerback
     direction 0.0367721 0.992912 -0.113016   
     length 1.73542   
     axis 0 0 0   XYZ
    dof rx ry rz
    limits (-20.0 45.0)
           (-30.0 30.0)
           (-30.0 30.0)
  end
  begin
     id 12 
     name upperback
     direction -0.000314626 0.990678 0.136227   
     length 1.7514   
     axis 0 0 0   XYZ
    dof rx ry rz
    limits (-20.0 45.0)
           (-30.0 30.0)
           (-30.0 30.0)
  end
  begin
     id 13 
     name thorax
     direction -0.0226159 0.981151 0.191917   
     length 1.71471   
     axis 0 0 0   XYZ
    dof rx ry rz
    limits (-20.0 45.0)
           (-30.0 30.0)
           (-30.0 30.0)
  end
  begin
     id 14 
     name lowerneck
     direction 0.0219333 0.998071 0.0580739   
     length 1.65882   
     axis 0 0 0   XYZ
    dof rx ry rz
    limits (-20.0 45.0)
           (-30.0 30.0)
           (-30.0 30.0)
  end
  begin
     id 15 
     name upperneck
     direction 0.0384529 0.980058 -0.194957   
     length 1.6612   
     axis 0 0 0   XYZ
    dof rx ry rz
    limits (-20.0 45.0)
           (-30.0 30.0)
           (-30.0 30.0)
  end
  begin
     id 16
     name head
     direction 0.00592123 0.997421 -0.0715234  
     length 1.68077  
     axis 0 0 0   XYZ
    dof rx ry rz
    limits (-20.0 45.0)
           (-30.0 30.0)
           (-30.0 30.0)
  end
  begin
     id 17 
     name lclavicle
     direction 0.904803 0.417826 0.0821728  
     length 3.42227  
     axis 0 0 0   XYZ
    dof ry rz
    limits (-20.0 10.0)
           (0.0 20.0)
  end
  begin
     id 18 
     name lhumerus
     direction 1 -4.48965e-011 -2.68786e-027   
     length 5.11878   
     axis -180 -30 -90   XYZ
    dof rx ry rz
    limits (-60.0 90.0)
           (-90.0 90.0)
           (-90.0 90.0)
  end
  begin
     id 19
     name lradius
     direction 1 -4.48965e-011 2.61168e-028   
     length 3.59971   
     axis -180 -30 -90   XYZ
    dof rx
    limits (-10.0 170.0)
  end
  begin
     id 20
     name lwrist
     direction 1 -4.48965e-011 1.58672e-027   
     length 1.79985   
     axis -1.65735e-015 90 90   XYZ
    dof ry
    limits (-180.0 0.0)
 end
  begin
     id 21 
     name lhand
     direction 1 -4.48942e-011 3.17344e-027   
     length 0.62877   
     axis -2.02492e-015 90 90   XYZ
    dof rx rz
    limits (-90.0 90.0)
           (-45.0 45.0)
  end
  begin
     id 22 
     name lfingers
     direction 1 -4.49011e-011 6.34687e-027   
     length 0.506931   
     axis -4.04985e-015 90 90   XYZ
    dof rx
    limits (0.0 90.0)
  end
  begin
     id 23
     name lthumb
     direction 0.707107 -6.34982e-011 0.707107   
     length 0.727854   
     axis -90 45 2.85299e-015   XYZ
    dof rx rz
    limits (-45.0 45.0)
           (-45.0 45.0)
  end
  begin
     id 24 
     name rclavicle
     direction -0.945647 0.32488 0.0143075   
     length 3.52737  
     axis 0 0 0   XYZ 
    dof ry rz
    limits (-10.0 20.0)
           (-20.0 0.0)
  end
  begin
     id 25 
     name rhumerus
     direction -1 -4.48962e-011 1.92182e-027  
     length 5.4902   
     axis -180 30 90   XYZ
    dof rx ry rz
    limits (-90.0 60.0)
           (-90.0 90.0)
           (-90.0 90.0)
  end
  begin
     id 26 
     name rradius
     direction -1 -4.48967e-011 -5.97193e-028   
     length 3.20659   
     axis -180 30 90   XYZ
    dof rx
    limits (-10.0 170.0)
  end
  begin
     id 27 
     name rwrist
     direction -1 -4.48964e-011 1.58672e-027   
     length 1.6033   
     axis -1.65735e-015 -90 -90   XYZ
    dof ry
    limits (-180.0 0.0)
  end
  begin
     id 28
     name rhand
     direction -1 -4.49006e-011 3.17344e-027   
     length 0.691885   
     axis -2.02492e-015 -90 -90   XYZ
    dof rx rz
    limits (-90.0 90.0)
           (-45.0 45.0)
  end
  begin
     id 29
     name rfingers
     direction -1 -4.48908e-011 6.34687e-027   
     length 0.557815   
     axis -4.04985e-015 -90 -90   XYZ
    dof rx
    limits (0.0 90.0)
  end
  begin
     id 30
     name rthumb
     direction -0.707107 -6.34999e-011 0.707107   
     length 0.800915   
     axis -90 -45 -2.85299e-015   XYZ
    dof rx rz
    limits (-45.0 45.0)
           (-45.0 45.0)
  end
:hierarchy
  begin
    root lhipjoint rhipjoint lowerback
    lhipjoint lfemur
    lfemur ltibia
    ltibia lfoot
    lfoot ltoes
    rhipjoint rfemur
    rfemur rtibia
    rtibia rfoot
    rfoot rtoes
    lowerback upperback
    upperback thorax
    thorax lowerneck lclavicle rclavicle
    lowerneck upperneck
    upperneck head
    lclavicle lhumerus
    lhumerus lradius
    lradius lwrist
    lwrist lhand lthumb
    lhand lfingers
    rclavicle rhumerus
    rhumerus rradius
    rradius rwrist
    rwrist rhand rthumb
    rhand rfingers
  end

#!OML:ASF I:\Actors\actors\Patient Classification 1\Patient 1\Session 1\Subject1.ASF
:FULLY-SPECIFIED
:DEGREES
1
root 0.88103 17.4496 8.80814 8.48941 0.756103 -9.02109
lowerback -0.437515 0.713392 7.13277
upperback -8.69267 1.42518 1.90399
thorax -8.84681 0.252171 -2.06089
lowerneck -3.41973 -11.2847 -10.4214
upperneck 14.6659 -16.7735 13.5895
head 7.07357 -7.88608 4.61424
rclavicle 1.92324e-014 1.59028e-014
rhumerus -46.1187 -32.3055 -64.7236
rradius 18.9986
rwrist 55.8662
rhand 8.06263 -30.8616
rfingers 7.12502
rthumb 33.2866 -57.8009
lclavicle 1.92324e-014 1.59028e-014
lhumerus -49.6222 33.5255 62.4099
lradius 15.6543
lwrist -43.7166
lhand -18.8312 -7.36702
lfingers 7.12502
lthumb 7.46806 22.4812
rfemur -1.22014 25.4233 26.3251
rtibia 1.41811
rfoot -14.6033 -23.5481
rtoes 18.0083
lfemur 8.45938 -49.4956 -13.7728
ltibia -4.74966
lfoot -24.7052 54.5164
ltoes 11.2877
2
root 0.876182 17.4499 8.80061 8.68402 0.593478 -9.22411
lowerback -0.439941 0.782112 7.24889
upperback -8.81311 1.53418 1.96283
thorax -8.97189 0.293262 -2.0696
lowerneck -3.38109 -11.2862 -10.3925
upperneck 14.7108 -16.7769 13.5325
head 7.07389 -7.89058 4.59331
rclavicle 9.69075e-015 -3.81667e-014
rhumerus -46.254 -32.3398 -64.6289
rradius 19.0484
rwrist 55.9778
rhand 8.16106 -30.8227
rfingers 7.12502
rthumb 33.3802 -57.7419
lclavicle 9.69075e-015 -3.81667e-014
lhumerus -49.6901 33.4066 62.4131
lradius 15.6888
lwrist -43.5838
lhand -18.791 -7.46533
lfingers 7.12502
lthumb 7.50692 22.3815
rfemur -1.6419 25.2925 26.4152
rtibia 1.47427
rfoot -13.9087 -23.4982
rtoes 13.948
lfemur 8.10417 -49.3359 -13.1924
ltibia -4.81398
lfoot -24.803 54.5265
ltoes 11.5108
3
root 0.873155 17.4501 8.79247 8.88105 0.437216 -9.42094
lowerback -0.466598 0.8467 7.37884
upperback -8.90607 1.6345 2.02368
thorax -9.05279 0.330925 -2.0829
lowerneck -3.27768 -11.2631 -10.4043
upperneck 14.614 -16.7456 13.5733
head 7.02524 -7.8812 4.61908
rclavicle -1.77415e-014 2.26615e-014
rhumerus -46.3065 -32.3329 -64.6138
rradius 19.0729
rwrist 56.0093
rhand 8.20473 -30.7773
rfingers 7.12502
rthumb 33.4217 -57.6876
lclavicle -1.77415e-014 2.26615e-014
lhumerus -49.7054 33.3686 62.4277
lradius 15.701
lwrist -43.5268
lhand -18.7716 -7.46329
lfingers 7.12502
lthumb 7.5256 22.3828
rfemur -2.07335 25.186 26.5031
rtibia 1.56411
rfoot -13.2879 -23.4479
rtoes 9.96635
lfemur 7.73677 -49.16 -12.6201
ltibia -4.87592
lfoot -24.961 54.4983
ltoes 11.7781
4
root 0.869823 17.449 8.78751 9.12401 0.371428 -9.6835
lowerback -0.619568 0.902757 7.58779
upperback -8.98569 1.71456 2.10157
thorax -9.04605 0.356584 -2.11806
lowerneck -3.2156 -11.2449 -10.3913
upperneck 14.5183 -16.7105 13.5636
head 6.9771 -7.86982 4.62287
rclavicle 1.83876e-014 -9.14409e-015
rhumerus -46.3341 -32.3624 -64.5727
rradius 19.0521
rwrist 56.1281
rhand 8.14602 -30.687
rfingers 7.12502
rthumb 33.3659 -57.6093
lclavicle 1.83876e-014 -9.14409e-015
lhumerus -49.6658 33.3257 62.4795
lradius 15.7036
lwrist -43.4701
lhand -18.6977 -7.43399
lfingers 7.12502
lthumb 7.59697 22.4096
rfemur -2.52326 24.9702 26.6816
rtibia 1.49429
rfoot -12.1346 -23.5502
rtoes 1.31113
lfemur 7.26172 -48.9911 -11.8814
ltibia -4.93006
lfoot -25.0205 54.4316
ltoes 11.8827
5
root 0.862681 17.4507 8.78803 9.5248 0.305752 -9.65275
lowerback -1.05651 1.02827 7.43487
upperback -9.09194 1.83466 2.039
thorax -8.89379 0.428106 -2.09932
lowerneck -3.08464 -11.3095 -10.2333
upperneck 14.3412 -16.789 13.5089
head 6.88912 -7.91361 4.58148
rclavicle -2.01269e-014 2.62396e-014
rhumerus -46.3262 -32.5585 -64.4704
rradius 18.7269
rwrist 56.2329
rhand 7.94886 -30.575
rfingers 7.12502
rthumb 33.1784 -57.5374
lclavicle -2.01269e-014 2.62396e-014
lhumerus -49.3342 32.766 62.9214
lradius 15.7042
lwrist -43.0652
lhand -18.6391 -7.56369
lfingers 7.12502
lthumb 7.65346 22.2778
rfemur -3.05249 25.3917 26.4709
rtibia 1.61322
rfoot -12.1604 -23.8588
rtoes 1.17099
lfemur 6.55231 -49.0397 -11.3209
ltibia -4.92252
lfoot -25.2529 54.534
ltoes 12.1408
6
root 0.846793 17.4495 8.7792 10.228 -0.152446 -9.04855
lowerback -1.65218 1.30426 6.47156
upperback -9.30321 2.10741 1.7742
thorax -8.75401 0.625768 -1.85006
lowerneck -2.98783 -11.4305 -9.94966
upperneck 14.3084 -16.9918 13.5548
head 6.86724 -7.99891 4.53564
rclavicle 3.926e-015 7.55382e-015
rhumerus -46.2459 -32.8602 -64.4064
rradius 18.1351
rwrist 56.145
rhand 7.67514 -30.5534
rfingers 7.12502
rthumb 32.9181 -57.5709
lclavicle 3.926e-015 7.55382e-015
lhumerus -48.4097 31.1049 64.4897
lradius 16.0159
lwrist -41.859
lhand -18.0912 -5.88707
lfingers 7.12502
lthumb 8.1823 23.9345
rfemur -4.14018 26.3681 25.3468
rtibia 1.93395
rfoot -12.346 -24.339
rtoes 1.9318
lfemur 5.45584 -49.3952 -11.1752
ltibia -4.79493
lfoot -26.352 55.0524
ltoes 13.1273
7
root 0.844121 17.4526 8.78062 10.3498 -0.218142 -8.63723
lowerback -1.82602 1.3638 5.98231
upperback -9.33217 2.14614 1.6018
thorax -8.68104 0.67657 -1.7595
lowerneck -2.90527 -11.4789 -9.7366
upperneck 14.2062 -17.0551 13.488
head 6.80347 -8.02949 4.48145
rclavicle -1.47101e-014 2.98177e-014
rhumerus -46.1928 -33.0347 -64.368
rradius 17.8127
rwrist 56.1116
rhand 7.53789 -30.5447
rfingers 7.12502
rthumb 32.7875 -57.5895
lclavicle -1.47101e-014 2.98177e-014
lhumerus -48.0814 30.4946 64.9861
lradius 16.0913
lwrist -41.5001
lhand -17.9159 -5.42751
lfingers 7.12502
lthumb 8.35146 24.3874
rfemur -4.26877 26.7612 24.7965
rtibia 1.90504
rfoot -12.4657 -24.6865
rtoes 2.23426
lfemur 5.26546 -49.6949 -11.5558
ltibia -4.68177
lfoot -26.6607 55.2748
ltoes 13.294
8
root 0.844232 17.4525 8.78035 10.3764 -0.19394 -8.66689
lowerback -1.84421 1.35351 6.00141
upperback -9.34456 2.13337 1.61993
thorax -8.68559 0.669337 -1.74982
lowerneck -2.8682 -11.4637 -9.7491
upperneck 14.1415 -17.0312 13.5152
head 6.77695 -8.02062 4.49772
rclavicle 1.09332e-014 2.78299e-014
rhumerus -46.1873 -33.0248 -64.3604
rradius 17.7934
rwrist 56.1099
rhand 7.5883 -30.5042
rfingers 7.12502
rthumb 32.8355 -57.539
lclavicle 1.09332e-014 2.78299e-014
lhumerus -48.1127 30.5455 64.9383
lradius 16.0844
lwrist -41.5537
lhand -17.935 -5.43879
lfingers 7.12502
lthumb 8.33305 24.3768
rfemur -4.30225 26.7563 24.8181
rtibia 1.90484
rfoot -12.449 -24.7029
rtoes 1.94414
lfemur 5.18004 -49.6468 -11.4437
ltibia -4.68775
lfoot -26.6721 55.2036
ltoes 13.3841
9
root 0.844133 17.4535 8.78052 10.3571 -0.205064 -8.69588
lowerback -1.83353 1.35099 6.00863
upperback -9.33352 2.13191 1.64084
thorax -8.68038 0.669331 -1.73184
lowerneck -2.80376 -11.4674 -9.77836
upperneck 14.0535 -17.0336 13.5549
head 6.74419 -8.02644 4.51912
rclavicle -3.63776e-014 1.43125e-014
rhumerus -46.1578 -32.939 -64.4123
rradius 17.8165
rwrist 56.0159
rhand 7.69218 -30.4955
rfingers 7.12502
rthumb 32.9343 -57.5095
lclavicle -3.63776e-014 1.43125e-014
lhumerus -48.1151 30.5895 64.9203
lradius 16.0738
lwrist -41.5659
lhand -17.9867 -5.43691
lfingers 7.12502
lthumb 8.28317 24.3807
rfemur -4.28564 26.7271 24.8645
rtibia 1.91689
rfoot -12.4074 -24.6823
rtoes 1.71726
lfemur 5.23361 -49.655 -11.4439
ltibia -4.71081
lfoot -26.8671 55.1969
ltoes 13.5853
10
root 0.844419 17.4548 8.78672 10.3878 -0.100115 -8.87587
lowerback -1.98448 1.33505 6.2046
upperback -9.31326 2.10616 1.68908
thorax -8.57004 0.647521 -1.78406
lowerneck -2.85004 -11.4817 -9.82341
upperneck 14.1346 -17.0776 13.6602
head 6.7973 -8.03878 4.55017
rclavicle -1.27222e-014 -2.74323e-014
rhumerus -46.1213 -32.9024 -64.4524
rradius 17.8141
rwrist 55.9399
rhand 7.73994 -30.5201
rfingers 7.12502
rthumb 32.9797 -57.5246
lclavicle -1.27222e-014 -2.74323e-014
lhumerus -48.0941 30.599 64.9133
lradius 16.0679
lwrist -41.5608
lhand -17.9934 -5.44097
lfingers 7.12502
lthumb 8.27672 24.3769
rfemur -4.24134 26.6393 25.1079
rtibia 1.85855
rfoot -12.3457 -24.6827
rtoes 1.50698
lfemur 5.21794 -49.6592 -11.2117
ltibia -4.74889
lfoot -26.7283 55.21
ltoes 13.2615
